<svg width="300" height="72" viewBox="0 0 300 72" xmlns="http://www.w3.org/2000/svg"><title>Logo</title><path d="M3 56.22c0-3.353 3.124-5.982 9.372-7.887-1.486-.762-2.228-1.752-2.228-2.972 0-.495.19-.99.571-1.486.381-.495.933-1.01 1.657-1.543v-.457c-2.743 0-4.924-.762-6.543-2.286-1.62-1.524-2.429-3.562-2.429-6.115 0-3.314 1.353-6.2 4.058-8.658 2.705-2.457 5.905-3.686 9.6-3.686.953 0 2.344.19 4.172.572 1.83.38 3.62.571 5.372.571h4.4l-.57 4.972-4.287-.514c.381 1.105.572 2.362.572 3.772 0 1.41-.334 2.81-1 4.2-.667 1.39-1.467 2.505-2.4 3.343a25.669 25.669 0 0 1-2.801 2.2 107.88 107.88 0 0 0-2.4 1.658c-.667.476-1 .905-1 1.286 0 .724.762 1.352 2.286 1.886 4.038 1.638 6.772 3.028 8.2 4.171 1.43 1.143 2.143 2.553 2.143 4.23 0 2.819-1.419 5.133-4.257 6.943-2.838 1.81-6.22 2.714-10.144 2.714-3.924 0-6.963-.628-9.115-1.885C4.076 59.99 3 58.315 3 56.219zm17.259-24.003c0-1.867-.42-3.238-1.257-4.114-.839-.877-2.153-1.315-3.944-1.315-3.467 0-5.2 1.705-5.2 5.115s1.848 5.115 5.543 5.115c3.239 0 4.858-1.6 4.858-4.8zm2.057 22.117c0-.686-.362-1.324-1.086-1.915-.724-.59-2.019-1.286-3.886-2.086-2.781.762-4.695 1.467-5.743 2.115-1.048.647-1.572 1.447-1.572 2.4 0 .952.524 1.724 1.572 2.314 1.048.591 2.505.886 4.372.886s3.39-.343 4.572-1.028c1.18-.686 1.771-1.581 1.771-2.686zm19.373-32.86l-.685 14.23.628 13.43-7.658 1.428.686-13.887-.628-13.773 7.657-1.429zm-8.057-8.344c0-1.296.495-2.448 1.485-3.458.991-1.01 2.134-1.514 3.43-1.514 1.295 0 2.285.352 2.971 1.057.686.705 1.029 1.762 1.029 3.172 0 1.41-.486 2.619-1.458 3.629-.971 1.01-2.095 1.514-3.371 1.514-1.277 0-2.277-.419-3-1.257-.725-.838-1.086-1.886-1.086-3.143zM53.69 50.562c-2.248 0-4.086-.715-5.515-2.143-1.429-1.429-2.143-3.353-2.143-5.772 0-2.42 1.105-4.515 3.314-6.287 2.21-1.771 4.896-2.657 8.058-2.657h3.886v-.971c0-1.867-.38-3.144-1.143-3.83-.762-.685-2.19-1.028-4.286-1.028-.876 0-1.914.18-3.114.543-1.2.362-2.543.924-4.03 1.686l-1.657-4.515c1.639-1.143 3.63-2.172 5.972-3.086 2.344-.914 4.277-1.372 5.801-1.372 5.982 0 8.972 2.896 8.972 8.687v11.201c0 2.134.667 4.515 2 7.144l-6.057 2.571c-.953-1.828-1.658-3.467-2.115-4.914-2.095 3.162-4.743 4.743-7.943 4.743zm2.4-5.83c1.524 0 3.257-.78 5.2-2.342v-3.83c-2.019-.457-3.657-.685-4.914-.685-2.4 0-3.6 1.067-3.6 3.2 0 1.105.304 1.99.914 2.658.61.666 1.41 1 2.4 1zm33.946-23.03c2.438 0 4.486 1.067 6.143 3.2 1.658 2.134 2.486 5.01 2.486 8.63 0 5.067-1.304 9.172-3.914 12.315-2.61 3.143-5.858 4.715-9.744 4.715-.8 0-1.695-.057-2.686-.172l.286 10.916-7.83 1.428.743-26.06h.057c-.152-5.105-.571-9.676-1.257-13.715l6.915-1.486c.229 2.02.42 4.02.572 6 .076-.19.466-.713 1.171-1.57.705-.858 1.743-1.772 3.115-2.744 1.371-.971 2.686-1.457 3.943-1.457zm-2.229 7.43c-2.019 0-3.981.552-5.886 1.656v4.915l.229 8.172c2.057.343 3.619.515 4.686.515 3.657 0 5.486-2.543 5.486-7.63 0-5.086-1.505-7.629-4.515-7.629zm32.29 6.971c0-2.629-.23-4.381-.687-5.257-.457-.877-1.524-1.315-3.2-1.315-1.676 0-3.581.667-5.715 2v4.172l.629 13.43-7.715 1.429.686-13.887-.686-28.917 7.83-1.429-.744 14.801v6.687a20.85 20.85 0 0 1 1.943-2.229c.724-.724 1.848-1.543 3.372-2.457 1.524-.915 3.153-1.372 4.886-1.372 1.734 0 3.19.676 4.372 2.029 1.181 1.352 1.772 3.19 1.772 5.515l-.343 6.4.628 13.716-7.715 1.429.686-14.745zm11.6 2.515c0-4.877 1.315-9.01 3.943-12.401 2.63-3.391 5.706-5.087 9.23-5.087s6.267 1.143 8.23 3.43c1.961 2.285 2.942 5.314 2.942 9.086 0 5.029-1.266 9.21-3.8 12.544-2.534 3.334-5.724 5-9.572 5-3.163 0-5.782-1.19-7.858-3.571-2.077-2.382-3.115-5.382-3.115-9.001zm17.945-2c0-5.525-1.886-8.287-5.658-8.287-3.924 0-5.886 2.59-5.886 7.772 0 2.705.552 4.82 1.657 6.344s2.562 2.286 4.372 2.286 3.181-.696 4.115-2.086c.933-1.39 1.4-3.4 1.4-6.03zm27.888-.515c0-2.629-.228-4.381-.686-5.257-.457-.877-1.524-1.315-3.2-1.315-1.676 0-3.581.667-5.715 2v4.172l.629 13.43-7.658 1.429.686-13.887c-.153-5.106-.572-9.677-1.257-13.716l6.914-1.486c.267 2.21.458 4.363.572 6.458a23.128 23.128 0 0 1 1.943-2.257c.724-.743 1.867-1.581 3.429-2.515 1.562-.933 3.21-1.4 4.943-1.4 1.734 0 3.191.676 4.372 2.029 1.181 1.352 1.772 3.19 1.772 5.515l-.343 6.4.628 13.716-7.715 1.429.686-14.745zm11.316 20.117c0-3.353 3.124-5.982 9.372-7.887-1.486-.762-2.229-1.752-2.229-2.972 0-.495.19-.99.572-1.486.38-.495.933-1.01 1.657-1.543v-.457c-2.743 0-4.924-.762-6.544-2.286-1.619-1.524-2.428-3.562-2.428-6.115 0-3.314 1.352-6.2 4.057-8.658 2.705-2.457 5.905-3.686 9.601-3.686.953 0 2.343.19 4.172.572 1.829.38 3.62.571 5.372.571h4.4l-.571 4.972-4.286-.514c.38 1.105.571 2.362.571 3.772 0 1.41-.333 2.81-1 4.2-.667 1.39-1.467 2.505-2.4 3.343a25.669 25.669 0 0 1-2.8 2.2c-.934.63-1.734 1.182-2.4 1.658-.667.476-1 .905-1 1.286 0 .724.761 1.352 2.285 1.886 4.039 1.638 6.772 3.028 8.201 4.171 1.429 1.143 2.143 2.553 2.143 4.23 0 2.819-1.42 5.133-4.258 6.943-2.838 1.81-6.22 2.714-10.143 2.714-3.925 0-6.963-.628-9.116-1.885-2.152-1.258-3.228-2.934-3.228-5.03zm17.258-24.003c0-1.867-.419-3.238-1.257-4.114-.838-.877-2.152-1.315-3.943-1.315-3.467 0-5.2 1.705-5.2 5.115s1.847 5.115 5.543 5.115c3.238 0 4.857-1.6 4.857-4.8zm2.058 22.117c0-.686-.362-1.324-1.086-1.915-.724-.59-2.02-1.286-3.886-2.086-2.781.762-4.696 1.467-5.744 2.115-1.047.647-1.571 1.447-1.571 2.4 0 .952.524 1.724 1.571 2.314 1.048.591 2.505.886 4.372.886s3.391-.343 4.572-1.028c1.181-.686 1.772-1.581 1.772-2.686zm10.115-7.601c0-1.22.448-2.296 1.343-3.229.895-.933 1.972-1.4 3.229-1.4 2.476 0 3.715 1.257 3.715 3.772 0 1.447-.448 2.648-1.343 3.6-.896.952-1.944 1.429-3.144 1.429-1.2 0-2.133-.39-2.8-1.172-.667-.78-1-1.78-1-3zm29.889-10.63c0-2.629-.229-4.381-.686-5.257-.457-.877-1.524-1.315-3.2-1.315-1.677 0-3.582.667-5.715 2v4.172l.628 13.43-7.658 1.429.686-13.887c-.152-5.106-.571-9.677-1.257-13.716l6.915-1.486c.267 2.21.457 4.363.571 6.458a23.128 23.128 0 0 1 1.943-2.257c.724-.743 1.867-1.581 3.43-2.515 1.561-.933 3.142-1.4 4.743-1.4 1.6 0 2.952.514 4.057 1.543 1.105 1.029 1.81 2.438 2.115 4.229 3.162-3.848 6.362-5.772 9.6-5.772 2.02 0 3.62.676 4.801 2.029 1.181 1.352 1.772 3.19 1.772 5.515l-.343 6.4.628 13.716-7.715 1.429.686-14.745c0-2.629-.228-4.381-.686-5.257-.457-.877-1.505-1.315-3.143-1.315s-3.486.629-5.543 1.886l-.229 4.286.629 13.716-7.715 1.429.686-14.745zm39.603 8.63c1.105 0 2.267-.286 3.486-.858 1.22-.571 2.172-1.142 2.858-1.714l1.029-.857 2.628 3.2c-.38.648-.971 1.39-1.771 2.229-.8.838-1.61 1.552-2.429 2.143-.82.59-1.905 1.124-3.257 1.6a12.556 12.556 0 0 1-4.2.714c-3.087 0-5.601-1.171-7.544-3.514-1.944-2.343-2.915-5.363-2.915-9.058 0-4.648 1.352-8.725 4.058-12.23 2.705-3.505 5.867-5.258 9.486-5.258 2.781 0 4.943.781 6.486 2.343 1.544 1.563 2.315 3.753 2.315 6.573 0 1.676-.286 3.58-.857 5.714L296 36.96l-14.287 1.315c.647 4.305 2.667 6.458 6.057 6.458zm0-17.716c-1.676 0-3.086.676-4.229 2.028-1.143 1.353-1.81 3.077-2 5.172l9.715-1.2c.115-.876.172-1.6.172-2.171 0-2.553-1.22-3.83-3.658-3.83z" fill="#FFF" fill-rule="evenodd"/></svg>