<?xml version="1.0" standalone="no"?>
<!DOCTYPE svg PUBLIC "-//W3C//DTD SVG 20010904//EN"
 "http://www.w3.org/TR/2001/REC-SVG-20010904/DTD/svg10.dtd">
<svg version="1.0" xmlns="http://www.w3.org/2000/svg"
 width="500.000000pt" height="500.000000pt" viewBox="0 0 500.000000 500.000000"
 preserveAspectRatio="xMidYMid meet">
<metadata>
Created by potrace 1.11, written by Peter Selinger 2001-2013
</metadata>
<g transform="translate(0.000000,500.000000) scale(0.100000,-0.100000)"
fill="#000000" stroke="none">
<path d="M2005 3942 c-132 -24 -242 -45 -244 -47 -2 -2 6 -413 19 -913 l21
-909 -21 -432 c-12 -238 -20 -434 -18 -437 5 -4 478 82 482 88 1 2 -6 161 -15
353 -10 193 -18 441 -18 552 l-1 202 46 27 c25 15 80 41 122 58 70 28 87 31
187 31 99 0 114 -2 149 -24 51 -32 73 -84 87 -207 9 -80 7 -192 -12 -596 -12
-274 -21 -500 -18 -502 5 -5 470 81 477 88 3 3 -4 198 -14 433 -12 273 -17
473 -12 553 13 235 11 370 -7 443 -34 132 -128 244 -242 287 -64 24 -176 28
-257 10 -126 -28 -315 -147 -431 -273 l-75 -80 0 247 c0 136 9 427 21 648 11
220 19 410 17 422 l-3 23 -240 -45z"/>
</g>
</svg>
